<?xml version="1.0" standalone="no"?>
<!DOCTYPE svg PUBLIC "-//W3C//DTD SVG 20010904//EN"
 "http://www.w3.org/TR/2001/REC-SVG-20010904/DTD/svg10.dtd">
<svg version="1.0" xmlns="http://www.w3.org/2000/svg"
 width="817.000000pt" height="817.000000pt" viewBox="0 0 817.000000 817.000000"
 preserveAspectRatio="xMidYMid meet">
<metadata>
Created by potrace 1.11, written by Peter Selinger 2001-2013
</metadata>
<g transform="translate(0.000000,817.000000) scale(0.100000,-0.100000)"
fill="#000000" stroke="none">
<path d="M3957 8144 c-1 -1 -59 -4 -129 -8 -230 -11 -590 -71 -823 -138 -572
-163 -1081 -429 -1519 -794 -202 -168 -456 -429 -607 -624 -385 -495 -645
-1057 -779 -1680 -28 -131 -38 -195 -65 -417 -27 -227 -22 -652 11 -917 75
-600 313 -1238 647 -1738 505 -754 1252 -1325 2107 -1608 260 -86 604 -163
835 -185 33 -3 78 -8 100 -11 50 -5 661 -6 695 0 14 2 59 7 100 11 198 17 541
90 785 166 483 151 1012 442 1376 755 498 430 792 806 1054 1347 218 451 343
893 390 1382 3 33 8 79 11 103 7 64 7 487 0 567 -4 39 -9 95 -12 125 -6 64
-12 112 -24 195 -5 33 -12 78 -15 100 -52 338 -198 774 -390 1157 -121 240
-348 583 -510 768 -518 592 -1109 993 -1818 1234 -253 86 -637 169 -882 190
-168 15 -528 28 -538 20z"/>
</g>
</svg>
